<svg width="5135" height="2808" xmlns="http://www.w3.org/2000/svg" xmlns:xlink="http://www.w3.org/1999/xlink" xml:space="preserve" overflow="hidden"><defs><clipPath id="clip0"><rect x="228" y="59" width="5135" height="2808"/></clipPath></defs><g clip-path="url(#clip0)" transform="translate(-228 -59)"><g><path d="M890.029 1811.06 1266.04 1811.06 1266.04 2633 890.029 2633ZM1831.06 1439.05 2207.07 1439.05 2207.07 2633 1831.06 2633ZM2772.09 1433.05 3148.1 1433.05 3148.1 2633 2772.09 2633ZM3713.12 1499.05 4089.13 1499.05 4089.13 2633 3713.12 2633ZM4653.15 781.026 5030.17 781.026 5030.17 2633 4653.15 2633Z" fill="#0070BA"/></g><g><path d="M607.5 2632.5 5312.5 2632.5" stroke="#9DC3E6" stroke-width="1.14583" stroke-linejoin="round" stroke-miterlimit="10" fill="none" fill-rule="evenodd"/></g><g><text fill="#262626" font-family="Calibri,Calibri_MSFontService,sans-serif" font-weight="700" font-size="92" transform="matrix(1 0 0 1 939.75 1766)">95.76%</text></g><g><text fill="#262626" font-family="Calibri,Calibri_MSFontService,sans-serif" font-weight="700" font-size="92" transform="matrix(1 0 0 1 1880.59 1393)">97.01%</text></g><g><text fill="#262626" font-family="Calibri,Calibri_MSFontService,sans-serif" font-weight="700" font-size="92" transform="matrix(1 0 0 1 2821.43 1388)">97.03%</text></g><g><text fill="#262626" font-family="Calibri,Calibri_MSFontService,sans-serif" font-weight="700" font-size="92" transform="matrix(1 0 0 1 3762.27 1453)">96.81%</text></g><g><text fill="#262626" font-family="Calibri,Calibri_MSFontService,sans-serif" font-weight="700" font-size="92" transform="matrix(1 0 0 1 4703.11 736)">99.22%</text></g><g><text fill="#262626" font-family="Calibri,Calibri_MSFontService,sans-serif" font-weight="700" font-size="110" transform="matrix(1 0 0 1 314.142 2665)">93%</text></g><g><text fill="#262626" font-family="Calibri,Calibri_MSFontService,sans-serif" font-weight="700" font-size="110" transform="matrix(1 0 0 1 314.142 2367)">94%</text></g><g><text fill="#262626" font-family="Calibri,Calibri_MSFontService,sans-serif" font-weight="700" font-size="110" transform="matrix(1 0 0 1 314.142 2069)">95%</text></g><g><text fill="#262626" font-family="Calibri,Calibri_MSFontService,sans-serif" font-weight="700" font-size="110" transform="matrix(1 0 0 1 314.142 1771)">96%</text></g><g><text fill="#262626" font-family="Calibri,Calibri_MSFontService,sans-serif" font-weight="700" font-size="110" transform="matrix(1 0 0 1 314.142 1474)">97%</text></g><g><text fill="#262626" font-family="Calibri,Calibri_MSFontService,sans-serif" font-weight="700" font-size="110" transform="matrix(1 0 0 1 314.142 1176)">98%</text></g><g><text fill="#262626" font-family="Calibri,Calibri_MSFontService,sans-serif" font-weight="700" font-size="110" transform="matrix(1 0 0 1 314.142 878)">99%</text></g><g><text fill="#262626" font-family="Calibri,Calibri_MSFontService,sans-serif" font-weight="700" font-size="110" transform="matrix(1 0 0 1 258.386 581)">100%</text></g><g><text fill="#262626" font-family="Calibri,Calibri_MSFontService,sans-serif" font-weight="700" font-size="110" transform="matrix(1 0 0 1 953.042 2808)">2020</text></g><g><text fill="#262626" font-family="Calibri,Calibri_MSFontService,sans-serif" font-weight="700" font-size="110" transform="matrix(1 0 0 1 1893.88 2808)">2021</text></g><g><text fill="#262626" font-family="Calibri,Calibri_MSFontService,sans-serif" font-weight="700" font-size="110" transform="matrix(1 0 0 1 2834.72 2808)">2022</text></g><g><text fill="#262626" font-family="Calibri,Calibri_MSFontService,sans-serif" font-weight="700" font-size="110" transform="matrix(1 0 0 1 3775.56 2808)">2023</text></g><g><text fill="#262626" font-family="Calibri,Calibri_MSFontService,sans-serif" font-weight="700" font-size="110" transform="matrix(1 0 0 1 4716.4 2808)">2024</text></g><g><text fill="#0070BA" font-family="Calibri,Calibri_MSFontService,sans-serif" font-weight="700" font-size="147" transform="matrix(1 0 0 1 1423.05 234)">RECHARGEABLE OR SOLAR TRACKING DEVICE </text></g><g><text fill="#0070BA" font-family="Calibri,Calibri_MSFontService,sans-serif" font-weight="700" font-size="147" transform="matrix(1 0 0 1 2042.32 413)">% OF OWNED VAN FLEET</text></g></g></svg>