<svg width="5122" height="2830" xmlns="http://www.w3.org/2000/svg" xmlns:xlink="http://www.w3.org/1999/xlink" xml:space="preserve" overflow="hidden"><defs><clipPath id="clip0"><rect x="206" y="68" width="5122" height="2830"/></clipPath></defs><g clip-path="url(#clip0)" transform="translate(-206 -68)"><g><path d="M767.5 494.5 767.5 2668.5M1662.55 494.5 1662.55 2668.5M2558.58 494.5 2558.58 2668.5M3453.61 494.5 3453.61 2668.5M4348.64 494.5 4348.64 2668.5M5244.5 494.5 5244.5 2668.5" stroke="#FFFFFF" stroke-width="3.4375" stroke-linejoin="round" stroke-miterlimit="10" fill="none"/></g><g><path d="M1036.03 929.031 1394.05 929.031 1394.05 2669 1036.03 2669ZM1931.06 755.025 2289.08 755.025 2289.08 2669 1931.06 2669ZM2827.09 712.023 3185.1 712.023 3185.1 2669 2827.09 2669ZM3722.12 668.022 4080.13 668.022 4080.13 2669 3722.12 2669ZM4618.15 625.021 4976.16 625.021 4976.16 2669 4618.15 2669Z" fill="#0070BA"/></g><g><path d="M767.5 2668.5 5244.5 2668.5" stroke="#8FAADC" stroke-width="1.14583" stroke-linejoin="round" stroke-miterlimit="10" fill="none" fill-rule="evenodd"/></g><g><text font-family="Calibri,Calibri_MSFontService,sans-serif" font-weight="700" font-size="73" transform="matrix(1 0 0 1 1104.11 889)">99.90%</text></g><g><text font-family="Calibri,Calibri_MSFontService,sans-serif" font-weight="700" font-size="73" transform="matrix(1 0 0 1 1999.56 715)">99.94%</text></g><g><text font-family="Calibri,Calibri_MSFontService,sans-serif" font-weight="700" font-size="73" transform="matrix(1 0 0 1 2895.01 672)">99.95%</text></g><g><text font-family="Calibri,Calibri_MSFontService,sans-serif" font-weight="700" font-size="73" transform="matrix(1 0 0 1 3790.47 628)">99.96%</text></g><g><text font-family="Calibri,Calibri_MSFontService,sans-serif" font-weight="700" font-size="73" transform="matrix(1 0 0 1 4685.92 585)">99.97%</text></g><g><text fill="#262626" font-family="Calibri,Calibri_MSFontService,sans-serif" font-weight="700" font-size="110" transform="matrix(1 0 0 1 388.376 2700)">99.5%</text></g><g><text fill="#262626" font-family="Calibri,Calibri_MSFontService,sans-serif" font-weight="700" font-size="110" transform="matrix(1 0 0 1 388.376 2266)">99.6%</text></g><g><text fill="#262626" font-family="Calibri,Calibri_MSFontService,sans-serif" font-weight="700" font-size="110" transform="matrix(1 0 0 1 388.376 1831)">99.7%</text></g><g><text fill="#262626" font-family="Calibri,Calibri_MSFontService,sans-serif" font-weight="700" font-size="110" transform="matrix(1 0 0 1 388.376 1396)">99.8%</text></g><g><text fill="#262626" font-family="Calibri,Calibri_MSFontService,sans-serif" font-weight="700" font-size="110" transform="matrix(1 0 0 1 388.376 961)">99.9%</text></g><g><text fill="#262626" font-family="Calibri,Calibri_MSFontService,sans-serif" font-weight="700" font-size="110" transform="matrix(1 0 0 1 332.619 526)">100.0%</text></g><g><g><text fill="#262626" font-family="Calibri,Calibri_MSFontService,sans-serif" font-weight="700" font-size="110" transform="matrix(1 0 0 1 1089.72 2843)">2020</text></g></g><g><g><text fill="#262626" font-family="Calibri,Calibri_MSFontService,sans-serif" font-weight="700" font-size="110" transform="matrix(1 0 0 1 1985.17 2843)">2021</text></g></g><g><g><text fill="#262626" font-family="Calibri,Calibri_MSFontService,sans-serif" font-weight="700" font-size="110" transform="matrix(1 0 0 1 2880.62 2843)">2022</text></g></g><g><g><text fill="#262626" font-family="Calibri,Calibri_MSFontService,sans-serif" font-weight="700" font-size="110" transform="matrix(1 0 0 1 3776.08 2843)">2023</text></g></g><g><g><text fill="#262626" font-family="Calibri,Calibri_MSFontService,sans-serif" font-weight="700" font-size="110" transform="matrix(1 0 0 1 4671.53 2843)">2024</text></g></g><g><text fill="#0070BA" font-family="Calibri,Calibri_MSFontService,sans-serif" font-weight="700" font-size="147" transform="matrix(1 0 0 1 1509.98 228)">% OF OWNED OVER</text></g><g><text fill="#0070BA" font-family="Calibri,Calibri_MSFontService,sans-serif" font-weight="700" font-size="147" transform="matrix(1 0 0 1 2711.34 228)">-</text></g><g><text fill="#0070BA" font-family="Calibri,Calibri_MSFontService,sans-serif" font-weight="700" font-size="147" transform="matrix(1 0 0 1 2756.24 228)">THE</text></g><g><text fill="#0070BA" font-family="Calibri,Calibri_MSFontService,sans-serif" font-weight="700" font-size="147" transform="matrix(1 0 0 1 2992.94 228)">-</text></g><g><text fill="#0070BA" font-family="Calibri,Calibri_MSFontService,sans-serif" font-weight="700" font-size="147" transform="matrix(1 0 0 1 3037.84 228)">ROAD VAN FLEET</text></g><g><text fill="#0070BA" font-family="Calibri,Calibri_MSFontService,sans-serif" font-weight="700" font-size="147" transform="matrix(1 0 0 1 1868.49 407)">WITH AERODYNAMIC DEVICES</text></g></g></svg>