<svg width="5108" height="2681" xmlns="http://www.w3.org/2000/svg" xmlns:xlink="http://www.w3.org/1999/xlink" xml:space="preserve" overflow="hidden"><defs><clipPath id="clip0"><rect x="205" y="216" width="5108" height="2681"/></clipPath></defs><g clip-path="url(#clip0)" transform="translate(-205 -216)"><g><path d="M818.027 1951.06 1196.04 1951.06 1196.04 2663 818.027 2663ZM1764.06 1809.06 2142.07 1809.06 2142.07 2663 1764.06 2663ZM2709.09 1619.05 3088.1 1619.05 3088.1 2663 2709.09 2663ZM3655.12 1001.03 4033.13 1001.03 4033.13 2663 3655.12 2663ZM4601.15 716.023 4979.16 716.023 4979.16 2663 4601.15 2663Z" fill="#0070BA"/></g><g><text fill="#3B3838" font-family="Calibri,Calibri_MSFontService,sans-serif" font-weight="700" font-size="92" transform="matrix(1 0 0 1 920.93 1915)">6.45</text></g><g><text fill="#3B3838" font-family="Calibri,Calibri_MSFontService,sans-serif" font-weight="700" font-size="92" transform="matrix(1 0 0 1 1866.72 1769)">6.48</text></g><g><text fill="#3B3838" font-family="Calibri,Calibri_MSFontService,sans-serif" font-weight="700" font-size="92" transform="matrix(1 0 0 1 2812.5 1587)">6.52</text></g><g><text fill="#3B3838" font-family="Calibri,Calibri_MSFontService,sans-serif" font-weight="700" font-size="92" transform="matrix(1 0 0 1 3758.29 962)">6.65</text></g><g><text fill="#3B3838" font-family="Calibri,Calibri_MSFontService,sans-serif" font-weight="700" font-size="92" transform="matrix(1 0 0 1 4708.17 664)">6.71</text></g><g><text fill="#3B3838" font-family="Calibri,Calibri_MSFontService,sans-serif" font-weight="700" font-size="110" transform="matrix(1 0 0 1 235.353 2695)">6.30</text></g><g><text fill="#3B3838" font-family="Calibri,Calibri_MSFontService,sans-serif" font-weight="700" font-size="110" transform="matrix(1 0 0 1 235.353 2458)">6.35</text></g><g><text fill="#3B3838" font-family="Calibri,Calibri_MSFontService,sans-serif" font-weight="700" font-size="110" transform="matrix(1 0 0 1 235.353 2220)">6.40</text></g><g><text fill="#3B3838" font-family="Calibri,Calibri_MSFontService,sans-serif" font-weight="700" font-size="110" transform="matrix(1 0 0 1 235.353 1983)">6.45</text></g><g><text fill="#3B3838" font-family="Calibri,Calibri_MSFontService,sans-serif" font-weight="700" font-size="110" transform="matrix(1 0 0 1 235.353 1745)">6.50</text></g><g><text fill="#3B3838" font-family="Calibri,Calibri_MSFontService,sans-serif" font-weight="700" font-size="110" transform="matrix(1 0 0 1 235.353 1508)">6.55</text></g><g><text fill="#3B3838" font-family="Calibri,Calibri_MSFontService,sans-serif" font-weight="700" font-size="110" transform="matrix(1 0 0 1 235.353 1271)">6.60</text></g><g><text fill="#3B3838" font-family="Calibri,Calibri_MSFontService,sans-serif" font-weight="700" font-size="110" transform="matrix(1 0 0 1 235.353 1033)">6.65</text></g><g><text fill="#3B3838" font-family="Calibri,Calibri_MSFontService,sans-serif" font-weight="700" font-size="110" transform="matrix(1 0 0 1 235.353 796)">6.70</text></g><g><text fill="#3B3838" font-family="Calibri,Calibri_MSFontService,sans-serif" font-weight="700" font-size="110" transform="matrix(1 0 0 1 235.353 558)">6.75</text></g><g><text fill="#3B3838" font-family="Calibri,Calibri_MSFontService,sans-serif" font-weight="700" font-size="110" transform="matrix(1 0 0 1 881.676 2838)">2020</text></g><g><text fill="#3B3838" font-family="Calibri,Calibri_MSFontService,sans-serif" font-weight="700" font-size="110" transform="matrix(1 0 0 1 1827.46 2838)">2021</text></g><g><text fill="#3B3838" font-family="Calibri,Calibri_MSFontService,sans-serif" font-weight="700" font-size="110" transform="matrix(1 0 0 1 2773.25 2838)">2022</text></g><g><text fill="#3B3838" font-family="Calibri,Calibri_MSFontService,sans-serif" font-weight="700" font-size="110" transform="matrix(1 0 0 1 3719.03 2838)">2023</text></g><g><text fill="#3B3838" font-family="Calibri,Calibri_MSFontService,sans-serif" font-weight="700" font-size="110" transform="matrix(1 0 0 1 4664.82 2838)">2024</text></g><g><g><text fill="#0070BA" font-family="Calibri,Calibri_MSFontService,sans-serif" font-weight="700" font-size="147" transform="matrix(1 0 0 1 1478.97 383)">AVERAGE FLEET</text></g></g><g><g><text fill="#0070BA" font-family="Calibri,Calibri_MSFontService,sans-serif" font-weight="700" font-size="147" transform="matrix(1 0 0 1 2431.46 383)">-</text></g></g><g><g><text fill="#0070BA" font-family="Calibri,Calibri_MSFontService,sans-serif" font-weight="700" font-size="147" transform="matrix(1 0 0 1 2476.35 383)">WIDE MPG SINCE 2020</text></g></g></g></svg>