<svg width="45" height="45" viewBox="0 0 45 45" fill="none" xmlns="http://www.w3.org/2000/svg">
<rect width="45" height="45" rx="22.5" fill="#F2BB0D"/>
<path d="M24.2405 36.0608L28.5858 31.7154L20.815 23.9447L20.1079 23.2376L20.815 22.5305L28.5858 14.7597L24.2404 10.4142L16.4666 18.1881L16.4666 18.1881L16.4632 18.1915L15.7965 18.8518L15.7932 18.8552L11.411 23.2373L15.7625 27.5888L15.7658 27.5856L16.4666 28.2864L24.2405 36.0608Z" fill="black"/>
<path d="M24.2405 36.0608L28.5858 31.7154L20.815 23.9447L20.1079 23.2376L20.815 22.5305L28.5858 14.7597L24.2404 10.4142L16.4666 18.1881L16.4666 18.1881L16.4632 18.1915L15.7965 18.8518L15.7932 18.8552L11.411 23.2373L15.7625 27.5888L15.7658 27.5856L16.4666 28.2864L24.2405 36.0608Z" fill="#004589"/>
<path d="M24.2405 36.0608L28.5858 31.7154L20.815 23.9447L20.1079 23.2376L20.815 22.5305L28.5858 14.7597L24.2404 10.4142L16.4666 18.1881L16.4666 18.1881L16.4632 18.1915L15.7965 18.8518L15.7932 18.8552L11.411 23.2373L15.7625 27.5888L15.7658 27.5856L16.4666 28.2864L24.2405 36.0608Z" stroke="#F2BB0D" stroke-width="2"/>
</svg>
