<?xml version="1.0" encoding="UTF-8" standalone="no"?>
<svg
   xmlns:dc="http://purl.org/dc/elements/1.1/"
   xmlns:cc="http://creativecommons.org/ns#"
   xmlns:rdf="http://www.w3.org/1999/02/22-rdf-syntax-ns#"
   xmlns:svg="http://www.w3.org/2000/svg"
   xmlns="http://www.w3.org/2000/svg"
   id="svg895"
   version="1.1"
   viewBox="0 0 30.005514 30.00551"
   height="30.00551mm"
   width="30.005514mm">
  <defs
     id="defs889" />
  <metadata
     id="metadata892">
    <rdf:RDF>
      <cc:Work
         rdf:about="">
        <dc:format>image/svg+xml</dc:format>
        <dc:type
           rdf:resource="http://purl.org/dc/dcmitype/StillImage" />
        <dc:title></dc:title>
      </cc:Work>
    </rdf:RDF>
  </metadata>
  <g
     transform="translate(0,-266.99449)"
     id="layer1">
    <path
       d="m 20.23322,275.26854 -1.89477,0.001 c -1.48661,0 -1.77588,0.70661 -1.77588,1.74342 v 2.28671 h 3.54612 l -0.46179,3.58105 h -3.08433 v 9.1888 H 12.8651 v -9.18881 H 9.77265 v -3.58104 h 3.09245 v -2.6409 c 0,-3.06493 1.87078,-4.73428 4.60516,-4.73428 1.31093,0 2.43593,0.0977 2.76296,0.14112 z m -5.23028,-8.27405 C 6.71724,266.99449 0,273.71137 0,281.99707 0,290.28311 6.71724,297 15.00294,297 c 8.28569,0 15.002574,-6.71689 15.002574,-15.00293 0,-8.2857 -6.716884,-15.00258 -15.002574,-15.00258"
       style="fill:#4267b2;fill-opacity:1;fill-rule:nonzero;stroke:none;stroke-width:0.35277775"
       id="path22" />
  </g>
</svg>
