<?xml version="1.0" encoding="UTF-8" standalone="no"?>
<svg
   xmlns:dc="http://purl.org/dc/elements/1.1/"
   xmlns:cc="http://creativecommons.org/ns#"
   xmlns:rdf="http://www.w3.org/1999/02/22-rdf-syntax-ns#"
   xmlns:svg="http://www.w3.org/2000/svg"
   xmlns="http://www.w3.org/2000/svg"
   id="svg1481"
   version="1.1"
   viewBox="0 0 19.16571 15.575138"
   height="15.575138mm"
   width="19.16571mm">
  <defs
     id="defs1475" />
  <metadata
     id="metadata1478">
    <rdf:RDF>
      <cc:Work
         rdf:about="">
        <dc:format>image/svg+xml</dc:format>
        <dc:type
           rdf:resource="http://purl.org/dc/dcmitype/StillImage" />
        <dc:title></dc:title>
      </cc:Work>
    </rdf:RDF>
  </metadata>
  <g
     transform="translate(-3.1144e-7,-281.42486)"
     id="layer1">
    <g
       style="fill:#f2bb0d;fill-opacity:1"
       transform="matrix(0.35277777,0,0,-0.35277777,19.165711,283.26848)"
       id="g24">
      <path
         id="path26"
         style="fill:#f2bb0d;fill-opacity:1;fill-rule:nonzero;stroke:none"
         d="m 0,0 c -1.999,-0.887 -4.148,-1.486 -6.402,-1.755 2.301,1.38 4.071,3.563 4.902,6.166 -2.152,-1.277 -4.536,-2.206 -7.076,-2.706 -2.035,2.168 -4.933,3.521 -8.138,3.521 -6.156,0 -11.146,-4.992 -11.146,-11.146 0,-0.876 0.098,-1.725 0.287,-2.539 -9.262,0.463 -17.474,4.899 -22.973,11.647 -0.958,-1.65 -1.508,-3.563 -1.508,-5.606 0,-3.866 1.967,-7.28 4.956,-9.277 -1.825,0.056 -3.544,0.56 -5.047,1.394 v -0.14 c 0,-5.4 3.843,-9.905 8.94,-10.929 -0.934,-0.254 -1.921,-0.394 -2.937,-0.394 -0.716,0 -1.417,0.073 -2.096,0.203 1.418,-4.428 5.533,-7.65 10.41,-7.743 -3.812,-2.988 -8.618,-4.77 -13.843,-4.77 -0.898,0 -1.785,0.054 -2.657,0.156 4.932,-3.16 10.791,-5.006 17.088,-5.006 20.501,0 31.712,16.981 31.712,31.712 0,0.482 -0.013,0.962 -0.031,1.444 C -3.386,-4.199 -1.498,-2.236 0,0" />
    </g>
  </g>
</svg>
