<?xml version="1.0" encoding="UTF-8" standalone="no"?>
<svg
   xmlns:dc="http://purl.org/dc/elements/1.1/"
   xmlns:cc="http://creativecommons.org/ns#"
   xmlns:rdf="http://www.w3.org/1999/02/22-rdf-syntax-ns#"
   xmlns:svg="http://www.w3.org/2000/svg"
   xmlns="http://www.w3.org/2000/svg"
   id="svg2576"
   version="1.1"
   viewBox="0 0 30.005159 30.00552"
   height="30.00552mm"
   width="30.005159mm">
  <defs
     id="defs2570" />
  <metadata
     id="metadata2573">
    <rdf:RDF>
      <cc:Work
         rdf:about="">
        <dc:format>image/svg+xml</dc:format>
        <dc:type
           rdf:resource="http://purl.org/dc/dcmitype/StillImage" />
        <dc:title></dc:title>
      </cc:Work>
    </rdf:RDF>
  </metadata>
  <g
     transform="translate(3.6632943,-120.22343)"
     id="layer1">
    <path
       d="m 18.508436,142.37894 h -2.968978 v -4.64573 c 0,-1.10878 -0.02187,-2.53471 -1.544461,-2.53471 -1.546578,0 -1.782233,1.20685 -1.782233,2.45286 v 4.72758 H 9.2448437 v -9.55534 h 2.8483283 v 1.30598 h 0.04057 c 0.396169,-0.75177 1.365955,-1.5434 2.811638,-1.5434 3.006725,0 3.563056,1.97802 3.563056,4.55154 z M 5.8941611,131.51761 c -0.954264,0 -1.724025,-0.77223 -1.724025,-1.72261 0,-0.94932 0.769761,-1.72155 1.724025,-1.72155 0.9507356,0 1.7219086,0.77223 1.7219086,1.72155 0,0.95038 -0.771173,1.72261 -1.7219086,1.72261 m 1.4862526,10.86133 H 4.4061444 v -9.55534 h 2.9742693 z m 3.9588723,-22.15551 c -8.2856916,0 -15.0025803,6.71689 -15.0025803,15.00294 0,8.28569 6.7168887,15.00258 15.0025803,15.00258 8.285692,0 15.00258,-6.71689 15.00258,-15.00258 0,-8.28605 -6.716888,-15.00294 -15.00258,-15.00294"
       style="fill:#0077b5;fill-opacity:1;fill-rule:nonzero;stroke:none;stroke-width:0.35277775"
       id="path30" />
  </g>
</svg>
