<?xml version="1.0" encoding="UTF-8" standalone="no"?>
<svg
   xmlns:dc="http://purl.org/dc/elements/1.1/"
   xmlns:cc="http://creativecommons.org/ns#"
   xmlns:rdf="http://www.w3.org/1999/02/22-rdf-syntax-ns#"
   xmlns:svg="http://www.w3.org/2000/svg"
   xmlns="http://www.w3.org/2000/svg"
   id="svg2061"
   version="1.1"
   viewBox="0 0 18.082506 18.040489"
   height="18.040489mm"
   width="18.082506mm">
  <defs
     id="defs2055" />
  <metadata
     id="metadata2058">
    <rdf:RDF>
      <cc:Work
         rdf:about="">
        <dc:format>image/svg+xml</dc:format>
        <dc:type
           rdf:resource="http://purl.org/dc/dcmitype/StillImage" />
        <dc:title></dc:title>
      </cc:Work>
    </rdf:RDF>
  </metadata>
  <g
     transform="translate(0,-278.95951)"
     id="layer1">
    <g
       style="fill:#f2bb0d;fill-opacity:1"
       id="g2041"
       transform="matrix(0.35277777,0,0,-0.35277777,1.4111111e-4,298.67527)">
      <path
         transform="translate(6.1626,55.887196)"
         d="m 0,0 c 3.399,0 6.156,-2.76 6.156,-6.154 0,-3.398 -2.757,-6.158 -6.156,-6.158 -3.412,0 -6.163,2.76 -6.163,6.158 C -6.163,-2.76 -3.412,0 0,0 M -5.32,-16.98 H 5.313 V -51.138 H -5.32 Z"
         style="fill:#f2bb0d;fill-opacity:1;fill-rule:nonzero;stroke:none"
         id="path30" />
      <g
         id="g32"
         transform="translate(18.1411,38.9068)"
         style="fill:#f2bb0d;fill-opacity:1">
        <path
           d="m 0,0 h 10.183 v -4.669 h 0.144 c 1.416,2.688 4.884,5.518 10.052,5.518 10.748,0 12.737,-7.072 12.737,-16.271 V -34.158 H 22.502 v 16.607 c 0,3.965 -0.078,9.061 -5.521,9.061 -5.529,0 -6.371,-4.315 -6.371,-8.768 v -16.9 H 0 Z"
           style="fill:#f2bb0d;fill-opacity:1;fill-rule:nonzero;stroke:none"
           id="path34" />
      </g>
    </g>
  </g>
</svg>
