<?xml version="1.0" encoding="UTF-8" standalone="no"?>
<svg
   xmlns:dc="http://purl.org/dc/elements/1.1/"
   xmlns:cc="http://creativecommons.org/ns#"
   xmlns:rdf="http://www.w3.org/1999/02/22-rdf-syntax-ns#"
   xmlns:svg="http://www.w3.org/2000/svg"
   xmlns="http://www.w3.org/2000/svg"
   id="svg3142"
   version="1.1"
   viewBox="0 0 30.005514 30.005159"
   height="30.005159mm"
   width="30.005514mm">
  <defs
     id="defs3136" />
  <metadata
     id="metadata3139">
    <rdf:RDF>
      <cc:Work
         rdf:about="">
        <dc:format>image/svg+xml</dc:format>
        <dc:type
           rdf:resource="http://purl.org/dc/dcmitype/StillImage" />
        <dc:title></dc:title>
      </cc:Work>
    </rdf:RDF>
  </metadata>
  <g
     transform="translate(-71.175815,-151.21766)"
     id="layer1">
    <path
       d="m 94.414698,162.8692 c -0.329142,0.21167 -1.40335,0.89218 -2.1844,1.39383 -0.220134,0.14111 -0.415573,0.0833 -0.415573,-0.18839 v -1.59032 H 81.24762 v 1.59032 c 0,0.27164 -0.195438,0.3295 -0.415219,0.18839 -0.781755,-0.50165 -1.855258,-1.18216 -2.1844,-1.39383 v -0.004 l 7.883172,-4.74063 7.883525,4.74063 z m -5.332589,2.72239 c 0,0.13088 -0.106186,0.23671 -0.236714,0.23671 h -4.628444 c -0.130528,0 -0.236361,-0.10583 -0.236361,-0.23671 0,-0.13088 0.105833,-0.23672 0.236361,-0.23672 h 4.628444 c 0.130528,0 0.236714,0.10584 0.236714,0.23672 m -5.830005,-1.29858 c -0.130528,0 -0.236714,-0.10618 -0.236714,-0.23706 0,-0.13053 0.106186,-0.23672 0.236714,-0.23672 h 6.557785 c 0.130881,0 0.237067,0.10619 0.237067,0.23672 0,0.13088 -0.106186,0.23706 -0.237067,0.23706 z m 11.162594,7.90646 H 78.648001 v -8.55663 l 5.672666,3.64032 h 4.42207 l 5.671961,-3.64032 z m -8.236303,-20.98181 c -8.285338,0 -15.00258,6.71689 -15.00258,15.00258 0,8.28569 6.717242,15.00258 15.00258,15.00258 8.286044,0 15.002935,-6.71689 15.002935,-15.00258 0,-8.28569 -6.716891,-15.00258 -15.002935,-15.00258"
       style="fill:#7d7d7d;fill-opacity:1;fill-rule:nonzero;stroke:none;stroke-width:0.35277775"
       id="path42" />
  </g>
</svg>
