<?xml version="1.0" encoding="UTF-8" standalone="no"?>
<svg
   xmlns:dc="http://purl.org/dc/elements/1.1/"
   xmlns:cc="http://creativecommons.org/ns#"
   xmlns:rdf="http://www.w3.org/1999/02/22-rdf-syntax-ns#"
   xmlns:svg="http://www.w3.org/2000/svg"
   xmlns="http://www.w3.org/2000/svg"
   id="svg1461"
   version="1.1"
   viewBox="0 0 30.005159 30.005512"
   height="30.005512mm"
   width="30.005159mm">
  <defs
     id="defs1455" />
  <metadata
     id="metadata1458">
    <rdf:RDF>
      <cc:Work
         rdf:about="">
        <dc:format>image/svg+xml</dc:format>
        <dc:type
           rdf:resource="http://purl.org/dc/dcmitype/StillImage" />
        <dc:title></dc:title>
      </cc:Work>
    </rdf:RDF>
  </metadata>
  <g
     transform="translate(39.193056,-27.997244)"
     id="layer1">
    <path
       d="m -17.957951,39.803305 c 0.0053,0.138994 0.0088,0.277636 0.0088,0.41663 0,4.249561 -3.234267,9.147881 -9.147881,9.147881 -1.816452,0 -3.506611,-0.531989 -4.929364,-1.443567 0.251178,0.02928 0.506942,0.0448 0.766234,0.0448 1.507419,0 2.893836,-0.51435 3.993444,-1.376186 -1.406877,-0.02681 -2.594328,-0.956028 -3.003197,-2.233789 0.195791,0.03775 0.398286,0.05856 0.604661,0.05856 0.293158,0 0.57785,-0.04022 0.847372,-0.113242 -1.470359,-0.295624 -2.579139,-1.59561 -2.579139,-3.153123 v -0.04022 c 0.433917,0.240594 0.929569,0.385939 1.456266,0.402167 -0.862541,-0.576087 -1.430161,-1.561042 -1.430161,-2.676173 0,-0.589138 0.15875,-1.141588 0.435328,-1.61678 1.586442,1.945922 3.955345,3.2258 6.627284,3.359503 -0.05468,-0.235303 -0.0829,-0.479778 -0.0829,-0.732367 0,-1.775531 1.439686,-3.215569 3.215216,-3.215569 0.924631,0 1.760714,0.390172 2.347736,1.016 0.73272,-0.144639 1.420637,-0.412398 2.041173,-0.780698 -0.239536,0.751064 -0.750006,1.380773 -1.413934,1.778706 0.65017,-0.07761 1.27,-0.250472 1.846792,-0.506589 -0.432153,0.645231 -0.976842,1.211792 -1.603728,1.664053 m -6.232527,-11.806058 c -8.285691,0 -15.00258,6.716889 -15.00258,15.002933 0,8.285691 6.716889,15.002579 15.00258,15.002579 8.285692,0 15.0025798,-6.716888 15.0025798,-15.002579 0,-8.286044 -6.7168878,-15.002933 -15.0025798,-15.002933"
       style="fill:#55acee;fill-opacity:1;fill-rule:nonzero;stroke:none;stroke-width:0.35277775"
       id="path26" />
  </g>
</svg>
