<svg width="5140" height="2820" xmlns="http://www.w3.org/2000/svg" xmlns:xlink="http://www.w3.org/1999/xlink" xml:space="preserve" overflow="hidden"><defs><clipPath id="clip0"><rect x="195" y="68" width="5140" height="2820"/></clipPath></defs><g clip-path="url(#clip0)" transform="translate(-195 -68)"><rect x="196" y="69.0001" width="5139" height="2819" fill="#FFFFFF"/><g><rect x="635" y="558" width="4650" height="2096" fill="#FFFFFF"/></g><g><path d="M634.5 558.5 634.5 2653.5M1564.55 558.5 1564.55 2653.5M2494.58 558.5 2494.58 2653.5M3424.61 558.5 3424.61 2653.5M4354.64 558.5 4354.64 2653.5M5284.5 558.5 5284.5 2653.5" stroke="#FFFFFF" stroke-width="3.4375" stroke-linejoin="round" stroke-miterlimit="10" fill="none"/></g><g><path d="M914.03 1740.06 1286.04 1740.06 1286.04 2654 914.03 2654ZM1844.06 1445.05 2216.07 1445.05 2216.07 2654 1844.06 2654ZM2774.09 1275.04 3146.1 1275.04 3146.1 2654 2774.09 2654ZM3704.12 1239.04 4076.13 1239.04 4076.13 2654 3704.12 2654ZM4633.15 1033.03 5005.16 1033.03 5005.16 2654 4633.15 2654Z" fill="#0070BA"/></g><g><path d="M634.5 2653.5 5284.5 2653.5" stroke="#9DC3E6" stroke-width="1.14583" stroke-linejoin="round" stroke-miterlimit="10" fill="none" fill-rule="evenodd"/></g><g><text fill="#262626" font-family="Calibri,Calibri_MSFontService,sans-serif" font-weight="700" font-size="92" transform="matrix(1 0 0 1 995.174 1694)">9,362</text></g><g><text fill="#262626" font-family="Calibri,Calibri_MSFontService,sans-serif" font-weight="700" font-size="92" transform="matrix(1 0 0 1 1901.88 1399)">10,768</text></g><g><text fill="#262626" font-family="Calibri,Calibri_MSFontService,sans-serif" font-weight="700" font-size="92" transform="matrix(1 0 0 1 2831.81 1229)">11,580</text></g><g><text fill="#262626" font-family="Calibri,Calibri_MSFontService,sans-serif" font-weight="700" font-size="92" transform="matrix(1 0 0 1 3761.74 1193)">11,753</text></g><g><text fill="#262626" font-family="Calibri,Calibri_MSFontService,sans-serif" font-weight="700" font-size="92" transform="matrix(1 0 0 1 4691.67 987)">12,735</text></g><g><text fill="#262626" font-family="Calibri,Calibri_MSFontService,sans-serif" font-weight="700" font-size="110" transform="matrix(1 0 0 1 281.486 2685)">5,000</text></g><g><text fill="#262626" font-family="Calibri,Calibri_MSFontService,sans-serif" font-weight="700" font-size="110" transform="matrix(1 0 0 1 281.486 2057)">8,000</text></g><g><text fill="#262626" font-family="Calibri,Calibri_MSFontService,sans-serif" font-weight="700" font-size="110" transform="matrix(1 0 0 1 225.729 1428)">11,000</text></g><g><text fill="#262626" font-family="Calibri,Calibri_MSFontService,sans-serif" font-weight="700" font-size="110" transform="matrix(1 0 0 1 225.729 799)">14,000</text></g><g><text fill="#262626" font-family="Calibri,Calibri_MSFontService,sans-serif" font-weight="700" font-size="110" transform="matrix(1 0 0 1 974.629 2828)">2020</text></g><g><text fill="#262626" font-family="Calibri,Calibri_MSFontService,sans-serif" font-weight="700" font-size="110" transform="matrix(1 0 0 1 1904.56 2828)">2021</text></g><g><text fill="#262626" font-family="Calibri,Calibri_MSFontService,sans-serif" font-weight="700" font-size="110" transform="matrix(1 0 0 1 2834.49 2828)">2022</text></g><g><text fill="#262626" font-family="Calibri,Calibri_MSFontService,sans-serif" font-weight="700" font-size="110" transform="matrix(1 0 0 1 3764.42 2828)">2023</text></g><g><text fill="#262626" font-family="Calibri,Calibri_MSFontService,sans-serif" font-weight="700" font-size="110" transform="matrix(1 0 0 1 4694.35 2828)">2024</text></g><g><text fill="#0070BA" font-family="Calibri,Calibri_MSFontService,sans-serif" font-weight="700" font-size="147" transform="matrix(1 0 0 1 1232.16 243)">CUMULATIVE NEW TRAILERS PURCHASED WITH </text></g><g><text fill="#0070BA" font-family="Calibri,Calibri_MSFontService,sans-serif" font-weight="700" font-size="147" transform="matrix(1 0 0 1 1704.84 422)">LOW</text></g><g><text fill="#0070BA" font-family="Calibri,Calibri_MSFontService,sans-serif" font-weight="700" font-size="147" transform="matrix(1 0 0 1 2008.32 422)">-</text></g><g><text fill="#0070BA" font-family="Calibri,Calibri_MSFontService,sans-serif" font-weight="700" font-size="147" transform="matrix(1 0 0 1 2057.8 422)">ROLLING RESISTANCE TIRES</text></g></g></svg>