<svg width="5144" height="2795" xmlns="http://www.w3.org/2000/svg" xmlns:xlink="http://www.w3.org/1999/xlink" xml:space="preserve" overflow="hidden"><defs><clipPath id="clip0"><rect x="213" y="65" width="5144" height="2795"/></clipPath></defs><g clip-path="url(#clip0)" transform="translate(-213 -65)"><rect x="214" y="65" width="5143" height="2795" fill="#FFFFFF"/><g><path d="M596.5 554.5 596.5 2626.5M1538.55 554.5 1538.55 2626.5M2480.58 554.5 2480.58 2626.5M3422.61 554.5 3422.61 2626.5M4364.64 554.5 4364.64 2626.5M5306.5 554.5 5306.5 2626.5" stroke="#FFFFFF" stroke-width="3.4375" stroke-linejoin="round" stroke-miterlimit="10" fill="none"/></g><g><path d="M879.029 1511.05 1256.04 1511.05 1256.04 2626 879.029 2626ZM1821.06 1224.04 2198.07 1224.04 2198.07 2626 1821.06 2626ZM2763.09 1042.03 3140.1 1042.03 3140.1 2626 2763.09 2626ZM3705.12 1020.03 4082.13 1020.03 4082.13 2626 3705.12 2626ZM4647.15 833.027 5024.16 833.027 5024.16 2626 4647.15 2626Z" fill="#0070BA"/></g><g><path d="M596.5 2626.5 5306.5 2626.5" stroke="#9DC3E6" stroke-width="1.14583" stroke-linejoin="round" stroke-miterlimit="10" fill="none" fill-rule="evenodd"/></g><g><text fill="#3B3838" font-family="Calibri,Calibri_MSFontService,sans-serif" font-weight="700" font-size="92" transform="matrix(1 0 0 1 963.198 1465)">4,847</text></g><g><text fill="#3B3838" font-family="Calibri,Calibri_MSFontService,sans-serif" font-weight="700" font-size="92" transform="matrix(1 0 0 1 1905.19 1178)">6,094</text></g><g><text fill="#3B3838" font-family="Calibri,Calibri_MSFontService,sans-serif" font-weight="700" font-size="92" transform="matrix(1 0 0 1 2847.19 996)">6,885</text></g><g><text fill="#3B3838" font-family="Calibri,Calibri_MSFontService,sans-serif" font-weight="700" font-size="92" transform="matrix(1 0 0 1 3789.18 975)">6,978</text></g><g><text fill="#3B3838" font-family="Calibri,Calibri_MSFontService,sans-serif" font-weight="700" font-size="92" transform="matrix(1 0 0 1 4731.18 787)">7,793</text></g><g><text fill="#3B3838" font-family="Calibri,Calibri_MSFontService,sans-serif" font-weight="700" font-size="110" transform="matrix(1 0 0 1 439.118 2658)">0</text></g><g><text fill="#3B3838" font-family="Calibri,Calibri_MSFontService,sans-serif" font-weight="700" font-size="110" transform="matrix(1 0 0 1 243.477 2428)">1,000</text></g><g><text fill="#3B3838" font-family="Calibri,Calibri_MSFontService,sans-serif" font-weight="700" font-size="110" transform="matrix(1 0 0 1 243.477 2198)">2,000</text></g><g><text fill="#3B3838" font-family="Calibri,Calibri_MSFontService,sans-serif" font-weight="700" font-size="110" transform="matrix(1 0 0 1 243.477 1968)">3,000</text></g><g><text fill="#3B3838" font-family="Calibri,Calibri_MSFontService,sans-serif" font-weight="700" font-size="110" transform="matrix(1 0 0 1 243.477 1737)">4,000</text></g><g><text fill="#3B3838" font-family="Calibri,Calibri_MSFontService,sans-serif" font-weight="700" font-size="110" transform="matrix(1 0 0 1 243.477 1507)">5,000</text></g><g><text fill="#3B3838" font-family="Calibri,Calibri_MSFontService,sans-serif" font-weight="700" font-size="110" transform="matrix(1 0 0 1 243.477 1277)">6,000</text></g><g><text fill="#3B3838" font-family="Calibri,Calibri_MSFontService,sans-serif" font-weight="700" font-size="110" transform="matrix(1 0 0 1 243.477 1047)">7,000</text></g><g><text fill="#3B3838" font-family="Calibri,Calibri_MSFontService,sans-serif" font-weight="700" font-size="110" transform="matrix(1 0 0 1 243.477 817)">8,000</text></g><g><text fill="#3B3838" font-family="Calibri,Calibri_MSFontService,sans-serif" font-weight="700" font-size="110" transform="matrix(1 0 0 1 243.477 587)">9,000</text></g><g><text fill="#3B3838" font-family="Calibri,Calibri_MSFontService,sans-serif" font-weight="700" font-size="110" transform="matrix(1 0 0 1 942.653 2801)">2020</text></g><g><text fill="#3B3838" font-family="Calibri,Calibri_MSFontService,sans-serif" font-weight="700" font-size="110" transform="matrix(1 0 0 1 1884.65 2801)">2021</text></g><g><text fill="#3B3838" font-family="Calibri,Calibri_MSFontService,sans-serif" font-weight="700" font-size="110" transform="matrix(1 0 0 1 2826.64 2801)">2022</text></g><g><text fill="#3B3838" font-family="Calibri,Calibri_MSFontService,sans-serif" font-weight="700" font-size="110" transform="matrix(1 0 0 1 3768.64 2801)">2023</text></g><g><text fill="#3B3838" font-family="Calibri,Calibri_MSFontService,sans-serif" font-weight="700" font-size="110" transform="matrix(1 0 0 1 4710.63 2801)">2024</text></g><g><text fill="#0070BA" font-family="Calibri,Calibri_MSFontService,sans-serif" font-weight="700" font-size="147" transform="matrix(1 0 0 1 983.273 238)">COMPANY</text></g><g><text fill="#0070BA" font-family="Calibri,Calibri_MSFontService,sans-serif" font-weight="700" font-size="147" transform="matrix(1 0 0 1 1649.09 238)">-</text></g><g><text fill="#0070BA" font-family="Calibri,Calibri_MSFontService,sans-serif" font-weight="700" font-size="147" transform="matrix(1 0 0 1 1698.57 238)">OWNED VAN TRAILERS IN FLEET WITH REINFORCED </text></g><g><text fill="#0070BA" font-family="Calibri,Calibri_MSFontService,sans-serif" font-weight="700" font-size="147" transform="matrix(1 0 0 1 2127.78 417)">REAR</text></g><g><text fill="#0070BA" font-family="Calibri,Calibri_MSFontService,sans-serif" font-weight="700" font-size="147" transform="matrix(1 0 0 1 2469.88 417)">-</text></g><g><text fill="#0070BA" font-family="Calibri,Calibri_MSFontService,sans-serif" font-weight="700" font-size="147" transform="matrix(1 0 0 1 2519.35 417)">UNDERRIDE GUARDS</text></g></g></svg>